<svg width="177" height="74" viewBox="0 0 177 74" fill="none" xmlns="http://www.w3.org/2000/svg">
<rect x="0.0654297" width="176.435" height="210" rx="10" fill="#D9A5B5"/>
<g clip-path="url(#clip0_0_1)">
<path d="M94.1545 18.8124C93.6367 16.8396 90.8756 16.7941 88.8803 17.2092C79.5649 19.1449 69.1481 22.5217 60.0772 25.3991C54.6985 27.1744 49.4665 29.3953 44.452 32.033C42.9408 32.8278 41.2001 34.4294 42.0485 35.9128C42.6608 36.9844 44.1703 37.008 45.3982 36.8797C58.2776 35.5314 70.968 32.3857 82.9888 27.5626C86.3756 26.2041 89.7675 24.6751 92.5066 22.2635C93.5136 21.3725 94.4969 20.1136 94.1545 18.8124Z" fill="#D196A8"/>
<path d="M142.546 91.2572C142.697 93.981 142.347 96.8735 141.015 99.523C140.99 99.5736 140.963 99.6243 140.936 99.6749C140.922 99.7036 140.907 99.7306 140.892 99.7593C140.807 99.9213 140.718 100.083 140.624 100.242C140.16 101.038 139.6 101.808 138.93 102.539C138.1 103.445 137.072 104.262 135.898 104.998C135.749 105.092 135.599 105.183 135.446 105.273C135.108 105.473 134.759 105.668 134.4 105.855C127.252 109.598 116.202 110.961 110.018 111.451C108.484 111.478 106.953 111.566 105.428 111.711H105.421H105.42C102.76 111.962 100.117 112.388 97.5143 112.987C88.5733 115.04 80.1755 119.089 71.2058 121.018C63.1807 122.744 54.1166 122.462 47.407 117.99C45.997 117.05 44.8703 115.739 44.1096 114.224C43.2444 112.499 42.5191 110.963 41.7719 109.512C41.6555 109.286 41.5392 109.063 41.4211 108.84C41.4025 108.806 41.3857 108.773 41.3671 108.739C40.4428 107.009 39.4409 105.372 38.068 103.639C37.8622 103.379 37.648 103.116 37.4237 102.851L37.422 102.849C37.3107 102.716 37.196 102.581 37.0763 102.444C37.0408 102.402 37.0037 102.36 36.9666 102.318C36.6225 101.926 36.2582 101.528 35.8703 101.121C34.5277 99.7154 33.0806 98.4126 31.6891 97.0541C31.5659 96.9342 31.4428 96.8128 31.3197 96.6912C31.2219 96.5951 31.1257 96.4972 31.0279 96.3993C30.6518 96.0213 30.2824 95.6365 29.9214 95.2433C23.2709 87.9749 20.2468 77.5354 21.9823 67.8335C23.7179 58.1332 30.1728 49.3915 38.9316 44.8823C40.5406 44.0537 42.2037 43.3685 43.9055 42.7863C44.1299 42.7087 44.3542 42.6344 44.5802 42.5602C50.217 40.7308 56.2468 39.9731 62.113 38.8964C74.0242 36.7144 85.6706 33.0911 96.7182 28.1313C98.5567 27.3061 100.385 26.442 102.218 25.5814C102.443 25.475 102.669 25.3704 102.893 25.2658C108.785 22.5083 114.723 19.8537 121.102 18.7635C123.845 18.2961 126.68 18.129 129.39 18.7517C136.601 20.4123 141.678 27.8427 141.679 35.2462C141.683 43.7044 136.149 51.4605 136.311 59.917C136.368 62.9243 137.146 65.8219 138.318 68.5963C139.419 71.207 140.87 73.708 142.398 76.0892C142.496 76.2411 142.594 76.3913 142.693 76.5431C143.727 78.1413 144.803 79.7225 145.846 81.319L142.344 89.2068C142.44 89.8751 142.509 90.5602 142.546 91.2572Z" fill="#D196A8"/>
<path d="M102.893 25.2657V71.509C102.893 71.6947 102.741 71.8465 102.556 71.8465C102.369 71.8465 102.218 71.6947 102.218 71.509V25.5813C102.443 25.475 102.669 25.3704 102.893 25.2657Z" fill="#D9A5B5"/>
<path d="M44.5802 42.5602V91.4664C44.5802 91.6538 44.4301 91.8039 44.2429 91.8039C44.0573 91.8039 43.9055 91.6538 43.9055 91.4664V42.7863C44.1299 42.7087 44.3542 42.6344 44.5802 42.5602Z" fill="#D9A5B5"/>
<path d="M70.494 66.2978C69.5579 64.4702 67.7397 63.2888 65.0663 62.7623C65.0646 62.7606 65.0629 62.7606 65.0596 62.7606C63.4201 62.4366 61.4602 62.3573 59.1816 62.5261C48.6737 63.3074 40.9437 65.3781 36.2076 68.679C32.9743 70.9336 31.6081 75.1374 32.8882 78.9041L38.7494 96.1529L38.9484 96.7402L54.1941 95.6669L57.7428 95.4171L57.8154 95.4121L57.8609 95.3564C57.8626 95.353 57.8761 95.3378 57.8997 95.3091C58.3399 94.7792 62.3525 89.892 65.8304 84.1187C70.7773 75.9103 72.3459 69.9143 70.494 66.2978ZM57.6484 95.0847L45.5652 95.9369L40.0127 96.3267H40.011L39.1845 96.3858L39.1019 96.1411L33.207 78.7944C31.9758 75.1711 33.2897 71.1243 36.4015 68.9558C39.898 66.5172 45.0592 64.757 51.7957 63.6989C51.8075 63.6972 51.821 63.6956 51.8362 63.6922C54.1131 63.3361 56.5723 63.061 59.2069 62.8636C59.981 62.8062 60.7181 62.7775 61.4181 62.7775C65.9957 62.7775 68.9422 64.0094 70.1937 66.4531C74.3783 74.6261 58.6216 93.9084 57.6484 95.0847Z" fill="#FEECD6"/>
<path d="M40.0903 96.5631L34.0723 78.8484C32.8157 75.1509 34.1279 71.0484 37.3292 68.8174C41.05 66.2236 47.8371 63.6146 60.2189 62.6949C87.7671 60.6478 58.7565 95.2484 58.7565 95.2484L40.0903 96.5631Z" fill="#FEECD6"/>
<path d="M90.4624 33.7223C90.594 33.2025 90.6243 32.73 90.6142 32.2659C90.6024 31.8035 90.5434 31.3411 90.5096 30.8365C90.4641 30.5209 90.3933 30.2071 90.2971 29.8999C89.9176 28.6663 89.162 27.5204 88.1787 26.6834C86.212 25.011 83.5404 24.395 80.9615 24.3106C77.0956 24.1824 72.906 25.3316 70.6003 28.4385C68.632 31.088 68.3958 34.588 67.5036 37.7658C66.0379 42.9922 62.6966 47.5166 58.8645 51.3576C56.6196 53.6088 54.0508 55.9023 53.4605 59.0277C52.882 62.094 54.4877 65.3004 56.9552 67.2074C57.8542 67.9027 58.8747 68.4596 59.9777 68.733C61.0994 69.0114 62.28 68.9895 63.4185 68.7954C66.9133 68.1997 69.9138 66.0615 72.8689 64.1039C73.164 63.9082 73.4626 63.7124 73.7594 63.4964C75.9049 61.8814 76.0735 59.0125 77.7602 56.9874C78.0553 56.5857 78.3589 56.3022 78.6659 56.1132C82.6515 55.9748 89.2295 53.781 90.26 59.404C90.368 59.7145 90.4759 60.0234 90.5957 60.3187C91.0764 61.4983 91.7443 62.4653 93.2454 62.5412C93.5051 62.5615 93.7683 62.5699 94.0331 62.5665C95.3537 62.548 96.6912 62.2088 97.6071 61.284C98.5803 60.3018 98.8991 58.8387 98.9092 57.4565C98.9244 55.531 98.4184 53.6038 97.4604 51.9347C97.091 51.2901 96.6609 50.691 96.192 50.1189C95.9575 49.8337 95.7147 49.5536 95.4634 49.2852C91.9281 46.8619 89.5668 42.8116 90.0424 38.4492C90.0475 38.0273 90.066 37.6071 90.0947 37.1835C90.1824 35.9179 90.368 34.6404 90.567 33.3814L90.4624 33.7223Z" fill="#3F4553"/>
<path d="M88.8465 34.4142C88.0504 36.7819 89.086 39.2255 90.5972 41.065C92.4795 43.3567 94.9117 45.0494 96.5275 47.5808C98.1433 50.1138 99.4454 53.327 98.7876 56.3799C98.5178 57.6354 97.8279 58.1468 96.6372 58.4708C95.637 58.7425 94.7059 59.0327 93.844 59.6318C93.645 59.7702 93.8339 60.0993 94.0363 59.9592C95.0365 59.2639 96.116 59.0665 97.2427 58.6902C97.9477 58.4539 98.5262 58.0691 98.8619 57.3857C99.9987 55.0669 99.1064 51.8807 98.1096 49.6886C96.8564 46.9311 94.9421 44.8621 92.7798 42.7965C90.5685 40.6853 88.1077 37.8046 89.2142 34.5155C89.2917 34.2826 88.924 34.183 88.8465 34.4142Z" fill="#4E5567"/>
<path d="M76.1257 53.9935L78.0823 52.5608L80.5853 51.3795L88.2747 53.9935L91.5586 88.7764L83.0714 90.9112L77.2204 73.2759L76.1257 53.9935Z" fill="white"/>
<path d="M91.751 49.0338C94.9421 49.6717 97.9511 51.4757 99.6395 54.3176C101.395 57.2726 101.426 61.1372 99.4809 64.0061C99.3443 64.2086 99.6715 64.3993 99.8081 64.1984C101.776 61.2924 101.788 57.3874 100.093 54.348C98.3964 51.3036 95.212 49.3409 91.8505 48.6693C91.6127 48.6187 91.5115 48.9849 91.751 49.0338Z" fill="#4E5567"/>
<path d="M65.903 44.5363C63.4084 46.5024 61.0201 48.6 58.5289 50.5711C56.564 52.1254 54.3612 53.5075 52.9815 55.6592C50.2542 59.9119 52.2343 65.1603 55.9922 68.0225C58.1022 69.6307 60.9644 70.9082 63.6344 70.0897C63.8672 70.0189 63.7677 69.651 63.5332 69.7235C61.0842 70.4745 58.4682 69.354 56.4897 67.9212C54.5214 66.4969 52.9275 64.4752 52.322 62.0923C51.7334 59.7735 52.2141 57.3097 53.6292 55.3858C55.0021 53.5193 57.0042 52.2587 58.7971 50.8411C61.2883 48.8717 63.6766 46.7724 66.1712 44.8063C66.3634 44.6544 66.0936 44.3861 65.903 44.5363Z" fill="#4E5567"/>
<path d="M69.7199 35.2309C69.4197 38.1657 68.8074 41.1054 67.5424 43.787C66.2875 46.4483 64.3141 48.5241 62.2986 50.6201C60.4972 52.4933 58.6841 54.4711 57.8036 56.9671C57.0683 59.0462 57.2234 61.3008 58.2068 63.2719C59.1901 65.2413 60.9897 66.6808 63.2549 66.6336C63.4995 66.6285 63.4995 66.2488 63.2549 66.2539C60.9594 66.3011 59.2356 64.7215 58.3619 62.7015C57.3162 60.2832 57.6468 57.7147 58.9135 55.4432C60.2021 53.1329 62.1856 51.3238 63.9802 49.4168C65.6989 47.5908 67.173 45.6383 68.1665 43.3196C69.2662 40.7527 69.8177 37.9986 70.0994 35.2309C70.123 34.9879 69.7435 34.9896 69.7199 35.2309Z" fill="#4E5567"/>
<path d="M88.6239 42.2564C88.6087 45.5388 91.3175 47.6989 93.3314 49.9231C94.5222 51.2395 95.5864 52.7667 95.7011 54.5961C95.8141 56.3984 95.0653 58.1501 93.7379 59.3568C93.5574 59.5221 93.8256 59.7888 94.006 59.6251C96.3825 57.465 96.6693 54.0206 94.9523 51.3711C93.0109 48.3739 88.9849 46.2307 89.0034 42.2564C89.0051 42.0117 88.6256 42.0117 88.6239 42.2564Z" fill="#4E5567"/>
<path d="M87.1835 53.6577C87.9172 55.2221 87.2695 57.0599 87.5174 58.7711C88.9612 68.7498 88.6019 78.9665 88.7571 89.0245C88.7807 90.5517 88.8465 92.2056 89.8062 93.3953C89.9884 93.6215 90.211 93.8324 90.4893 93.9202C90.7086 93.9893 90.9447 93.9758 91.1758 93.9623C94.4361 93.7649 97.6964 93.5675 100.957 93.37C99.8975 87.1057 98.8383 80.8397 97.779 74.5754C100.323 77.7328 102.864 80.8903 105.408 84.0478C106.484 81.2295 107.558 78.4112 108.634 75.5913C108.763 75.2538 108.894 74.8994 108.845 74.5416C108.801 74.2243 108.621 73.9459 108.444 73.6792C105.959 69.9379 103.35 66.2809 100.606 62.7251C98.9411 60.5667 97.1988 58.4201 94.9859 56.8304C92.6938 55.1799 89.8754 54.3074 87.1835 53.6577Z" fill="#FB7C85"/>
<path d="M89.7253 29.1388C87.9881 23.5208 81.4455 22.2433 76.3501 23.5427C73.8876 24.1705 71.5667 25.4784 69.9459 27.463C68.0315 29.807 67.2725 32.8278 66.8306 35.7609C66.5422 37.6729 66.3921 39.6102 65.9468 41.4953C65.687 42.5956 65.1068 43.5659 64.7138 44.6207C64.6278 44.8502 64.9955 44.9498 65.0798 44.7219C65.375 43.9288 65.8102 43.193 66.0902 42.3981C66.5135 41.1999 66.6602 39.8752 66.8289 38.6213C67.2287 35.6478 67.5339 32.5882 68.8731 29.856C71.2328 25.043 76.7043 22.9487 81.8368 23.5714C85.2827 23.9882 88.2917 25.7923 89.3576 29.24C89.4318 29.4729 89.7978 29.3733 89.7253 29.1388Z" fill="#4E5567"/>
<path d="M77.2541 37.894C75.4966 37.3641 74.6179 38.0763 74.4071 39.3167C74.1945 40.5554 75.3195 41.8413 76.5744 41.7974C76.6958 43.3264 76.9134 44.8705 77.5307 46.2746C78.1464 47.6787 79.2056 48.9427 80.6224 49.5266C82.2011 50.1797 84.1306 49.8776 85.4361 48.7756C85.959 48.3334 86.3789 47.7833 86.7753 47.2247C87.9863 45.5169 89.0371 43.6521 89.4976 41.6084C89.958 39.5647 89.7759 37.3169 88.6677 35.5398C88.548 35.3475 88.408 35.1534 88.2056 35.0504C87.9172 34.9036 87.5714 34.9745 87.2594 35.0555C83.8894 35.9432 80.7371 37.9041 77.2541 37.894Z" fill="#FFB9A3"/>
<path d="M90.3224 30.4568C90.5737 31.3496 90.8267 32.2592 90.7913 33.1856C90.7559 34.1121 90.3815 35.0741 89.6123 35.5921C88.9984 36.0056 88.2259 36.0849 87.5259 36.3229C86.1075 36.8038 85.0111 37.9143 83.9047 38.9251C82.8573 39.882 81.5417 40.8355 80.1519 40.557C78.8734 40.3005 78.0284 39.0838 77.5072 37.8873C77.2272 37.246 76.9978 36.5338 77.1614 35.8537C77.2559 35.4622 77.4752 35.1112 77.718 34.7905C79.1163 32.9544 81.3848 31.9436 83.6635 31.5926C85.9439 31.2415 88.2681 31.4778 90.5619 31.7158L90.3224 30.4568Z" fill="#3F4553"/>
<path d="M77.5391 37.9564C78.0316 40.8507 81.3375 42.2885 83.7663 40.5857C84.9199 39.7773 85.6638 38.5471 86.6707 37.5835C87.74 36.5608 89.6055 36.1187 89.9023 34.48C89.9462 34.2404 89.5802 34.1391 89.5363 34.3788C89.2698 35.8419 87.5646 36.2638 86.5746 37.1531C85.7768 37.8704 85.1611 38.7614 84.4106 39.5259C83.4087 40.5469 82.1167 41.1915 80.6594 40.8743C79.1752 40.5503 78.1531 39.3183 77.9035 37.8552C77.8647 37.6155 77.4987 37.7185 77.5391 37.9564Z" fill="#4E5567"/>
<path d="M123.127 54.252C123.357 53.2816 122.758 52.3084 121.788 52.0782C120.818 51.8481 119.845 52.4481 119.615 53.4184C119.385 54.3888 119.985 55.362 120.955 55.5922C121.925 55.8223 122.897 55.2223 123.127 54.252Z" fill="#D9A5B5"/>
<path d="M121.372 57.6995C119.244 57.6995 117.511 55.9664 117.511 53.8366C117.511 51.7069 119.244 49.9738 121.372 49.9738C123.501 49.9738 125.233 51.7069 125.233 53.8366C125.235 55.9664 123.502 57.6995 121.372 57.6995ZM121.372 50.1408C119.336 50.1408 117.68 51.798 117.68 53.835C117.68 55.8719 119.336 57.5291 121.372 57.5291C123.408 57.5291 125.064 55.8719 125.064 53.835C125.066 51.798 123.41 50.1408 121.372 50.1408Z" fill="#D9A5B5"/>
<path d="M97.2124 34.1509C97.585 34.1509 97.887 33.8487 97.887 33.4759C97.887 33.1031 97.585 32.8009 97.2124 32.8009C96.8398 32.8009 96.5377 33.1031 96.5377 33.4759C96.5377 33.8487 96.8398 34.1509 97.2124 34.1509Z" fill="#D9A5B5"/>
<path d="M32.8158 61.9877C31.4395 61.9877 30.3195 60.8672 30.3195 59.4901C30.3195 58.113 31.4395 56.9925 32.8158 56.9925C34.1921 56.9925 35.312 58.113 35.312 59.4901C35.312 60.8672 34.1921 61.9877 32.8158 61.9877ZM32.8158 57.33C31.625 57.33 30.6569 58.2987 30.6569 59.4901C30.6569 60.6815 31.625 61.6502 32.8158 61.6502C34.0066 61.6502 34.9747 60.6815 34.9747 59.4901C34.9747 58.2987 34.0066 57.33 32.8158 57.33Z" fill="#D9A5B5"/>
<path d="M53.867 32.8009C53.867 33.3645 53.4099 33.8219 52.8465 33.8219C52.2832 33.8219 51.8261 33.3645 51.8261 32.8009C51.8261 32.2372 52.2832 31.7799 52.8465 31.7799C53.4116 31.7816 53.867 32.2372 53.867 32.8009Z" fill="#D9A5B5"/>
<path d="M149.143 73.8953L145.846 81.319L142.344 89.2068L141.403 91.3247L138.743 97.314L98.8333 98.3822L100.967 93.3532L110.232 71.5192C110.736 70.3328 111.863 69.5295 113.148 69.4384C117.758 69.1178 129.087 68.4191 138.318 68.5963C141.371 68.6537 144.196 68.8089 146.47 69.1042C147.272 69.2089 147.959 69.5785 148.468 70.1067C149.399 71.0652 149.743 72.5452 149.143 73.8953Z" fill="#FEECD6"/>
<path d="M97.5902 98.443L97.2765 98.3198L99.4101 92.901L108.677 70.8476C109.208 69.5853 110.38 68.7398 111.736 68.6436C116.228 68.328 127.673 67.6142 136.921 67.7931C140.219 67.8555 142.966 68.0293 145.092 68.3078C145.903 68.4141 146.628 68.782 147.19 69.3709C148.22 70.4426 148.499 72.0171 147.897 73.3823L140.156 90.9839L139.848 90.8472L147.588 73.2457C148.134 72.007 147.881 70.5776 146.945 69.6038C146.436 69.0706 145.78 68.7381 145.046 68.6419C142.934 68.3651 140.197 68.193 136.913 68.1306C127.679 67.9517 116.245 68.6655 111.758 68.9811C110.53 69.0689 109.468 69.835 108.985 70.9792L99.7204 93.0292L97.5902 98.443Z" fill="#FEECD6"/>
<path d="M98.2784 75.156C97.4857 73.5866 96.4349 72.1504 95.8057 70.5C95.6911 70.1979 95.2019 70.3295 95.3183 70.635C95.966 72.3293 97.0286 73.8009 97.8432 75.4125C97.9883 75.7028 98.4251 75.4463 98.2784 75.156Z" fill="white"/>
<path d="M83.0715 88.6786C82.7966 84.0731 82.3631 79.4778 81.7711 74.9028C81.2921 71.1968 80.8401 67.474 79.9377 63.8407C79.4874 62.0282 78.924 60.2427 78.2055 58.5163C77.5258 56.881 76.4159 55.0973 77.1058 53.273C75.2977 54.5724 74.1069 55.104 72.034 55.9141C70.3642 56.5671 68.6303 57.0498 66.9757 57.7417C66.0143 58.1434 65.0715 58.6209 64.2872 59.3061C63.4 60.0807 62.7489 61.0865 62.1401 62.094C61.4519 63.2331 60.7992 64.3959 60.2392 65.6042C59.3402 67.5432 58.6858 69.5835 57.9386 71.585C56.6028 75.1593 54.965 78.6172 53.1738 81.9873C52.0437 84.1136 50.8293 86.2721 50.5122 88.66C50.1951 91.0479 51.0064 93.765 53.0979 94.9564C54.0525 95.4998 55.1708 95.6753 56.2671 95.758C64.2737 96.3571 71.8636 95.2568 80.9126 94.0805C80.6815 94.175 81.1605 94.0485 80.9126 94.0805C81.1791 93.9725 81.3326 93.7008 81.4591 93.4426C82.1894 91.9508 82.9652 90.3391 83.0715 88.6786Z" fill="#FB7C85"/>
<path d="M84.6332 58.4185C83.4458 58.8488 82.1302 58.7172 80.8905 58.4691C79.661 58.2227 78.3319 57.7806 77.7011 56.6955C76.905 55.3302 77.5476 53.6257 77.9271 52.0917C78.4145 50.1324 78.4331 48.0584 77.9844 46.0906L82.6463 46.9901L84.2284 47.2956C84.1863 49.3291 84.7058 51.3711 85.7161 53.1363C85.8122 53.3034 85.9117 53.4688 86.0095 53.6359C86.3772 54.2552 86.7314 54.888 86.7685 55.5968C86.836 56.8592 85.8223 57.9881 84.6332 58.4185Z" fill="#FFB9A3"/>
<path d="M86.0097 53.6358C81.6463 53.3151 79.9832 50.2792 79.4334 48.8211C79.7943 49.1097 80.1924 49.3493 80.6225 49.5265C81.82 50.021 83.2182 49.967 84.3922 49.4337C84.6131 50.7331 85.0618 51.9921 85.7162 53.1363C85.8123 53.3033 85.9118 53.4687 86.0097 53.6358Z" fill="#FF9B8D"/>
<mask id="path-31-inside-1_0_1" fill="white">
<path d="M121.372 41.578C116.032 41.578 111.687 37.2308 111.687 31.8879C111.687 26.545 116.032 22.1978 121.372 22.1978C126.712 22.1978 131.057 26.545 131.057 31.8879C131.057 37.2308 126.714 41.578 121.372 41.578ZM121.372 22.3665C116.125 22.3665 111.856 26.6378 111.856 31.8879C111.856 37.138 116.125 41.4092 121.372 41.4092C126.619 41.4092 130.888 37.138 130.888 31.8879C130.888 26.6378 126.619 22.3665 121.372 22.3665Z"/>
</mask>
<path d="M121.372 41.578C116.032 41.578 111.687 37.2308 111.687 31.8879C111.687 26.545 116.032 22.1978 121.372 22.1978C126.712 22.1978 131.057 26.545 131.057 31.8879C131.057 37.2308 126.714 41.578 121.372 41.578ZM121.372 22.3665C116.125 22.3665 111.856 26.6378 111.856 31.8879C111.856 37.138 116.125 41.4092 121.372 41.4092C126.619 41.4092 130.888 37.138 130.888 31.8879C130.888 26.6378 126.619 22.3665 121.372 22.3665Z" fill="#F9F7F1"/>
<path d="M121.372 36.578C118.796 36.578 116.687 34.472 116.687 31.8879H106.687C106.687 39.9896 113.268 46.578 121.372 46.578V36.578ZM116.687 31.8879C116.687 29.3038 118.796 27.1978 121.372 27.1978V17.1978C113.268 17.1978 106.687 23.7862 106.687 31.8879H116.687ZM121.372 27.1978C123.948 27.1978 126.057 29.3038 126.057 31.8879H136.057C136.057 23.7862 129.476 17.1978 121.372 17.1978V27.1978ZM126.057 31.8879C126.057 34.4725 123.949 36.578 121.372 36.578V46.578C129.478 46.578 136.057 39.989 136.057 31.8879H126.057ZM121.372 17.3665C113.361 17.3665 106.856 23.879 106.856 31.8879H116.856C116.856 29.3966 118.889 27.3665 121.372 27.3665V17.3665ZM106.856 31.8879C106.856 39.8968 113.361 46.4092 121.372 46.4092V36.4092C118.889 36.4092 116.856 34.3791 116.856 31.8879H106.856ZM121.372 46.4092C129.383 46.4092 135.888 39.8968 135.888 31.8879H125.888C125.888 34.3791 123.855 36.4092 121.372 36.4092V46.4092ZM135.888 31.8879C135.888 23.879 129.383 17.3665 121.372 17.3665V27.3665C123.855 27.3665 125.888 29.3966 125.888 31.8879H135.888Z" fill="#F9F7F1" mask="url(#path-31-inside-1_0_1)"/>
<mask id="path-33-inside-2_0_1" fill="white">
<path d="M121.271 31.9858L122.543 24.5098L122.71 24.5385L121.477 31.79C123.092 31.5858 125.452 31.2686 125.616 31.1892L125.646 31.2534L125.66 31.2551L125.722 31.1926L125.744 31.2837C125.724 31.3445 125.695 31.4289 121.386 31.9706L121.271 31.9858Z"/>
</mask>
<path d="M121.271 31.9858L122.543 24.5098L122.71 24.5385L121.477 31.79C123.092 31.5858 125.452 31.2686 125.616 31.1892L125.646 31.2534L125.66 31.2551L125.722 31.1926L125.744 31.2837C125.724 31.3445 125.695 31.4289 121.386 31.9706L121.271 31.9858Z" fill="#F9F7F1"/>
<path d="M121.271 31.9858L116.342 31.1473L115.204 37.8328L121.927 36.9425L121.271 31.9858ZM122.543 24.5098L123.389 19.582L118.453 18.7339L117.613 23.6713L122.543 24.5098ZM122.71 24.5385L127.639 25.3766L128.476 20.4558L123.556 19.6107L122.71 24.5385ZM121.477 31.79L116.547 30.9519L115.418 37.5955L122.104 36.7506L121.477 31.79ZM125.616 31.1892L130.135 29.0498L127.976 24.4886L123.435 26.6901L125.616 31.1892ZM125.646 31.2534L121.127 33.3928L122.302 35.874L125.026 36.2147L125.646 31.2534ZM125.66 31.2551L125.039 36.2164L127.467 36.52L129.196 34.7896L125.66 31.2551ZM125.722 31.1926L130.583 30.0229L128.495 21.3448L122.185 27.6581L125.722 31.1926ZM125.744 31.2837L130.488 32.8641L130.94 31.5059L130.605 30.114L125.744 31.2837ZM121.386 31.9706L120.762 27.0096L120.746 27.0117L120.729 27.0139L121.386 31.9706ZM126.2 32.8243L127.472 25.3483L117.613 23.6713L116.342 31.1473L126.2 32.8243ZM121.696 29.4376L121.863 29.4663L123.556 19.6107L123.389 19.582L121.696 29.4376ZM117.78 23.7004L116.547 30.9519L126.406 32.6281L127.639 25.3766L117.78 23.7004ZM122.104 36.7506C122.925 36.6467 123.945 36.513 124.79 36.3936C125.208 36.3346 125.611 36.2751 125.935 36.2222C126.091 36.1966 126.27 36.166 126.438 36.1324C126.518 36.1163 126.643 36.0903 126.784 36.0548C126.791 36.0529 127.271 35.9433 127.797 35.6884L123.435 26.6901C123.753 26.5357 124.014 26.4528 124.092 26.4283C124.205 26.3928 124.293 26.3699 124.336 26.3589C124.385 26.3466 124.422 26.3383 124.44 26.3342C124.46 26.3298 124.473 26.3272 124.477 26.3265C124.478 26.3262 124.433 26.335 124.32 26.3535C124.104 26.3887 123.786 26.4363 123.391 26.492C122.612 26.6021 121.644 26.7291 120.85 26.8295L122.104 36.7506ZM121.097 33.3286L121.127 33.3928L130.165 29.114L130.135 29.0498L121.097 33.3286ZM125.026 36.2147L125.039 36.2164L126.28 26.2937L126.267 26.292L125.026 36.2147ZM129.196 34.7896L129.259 34.7271L122.185 27.6581L122.123 27.7205L129.196 34.7896ZM120.861 32.3623L120.883 32.4534L130.605 30.114L130.583 30.0229L120.861 32.3623ZM121 29.7034C120.99 29.7326 121.128 29.2792 121.415 28.7845C121.734 28.2364 122.131 27.7936 122.548 27.4501C122.929 27.1357 123.282 26.9417 123.508 26.8312C123.738 26.7186 123.929 26.6482 124.043 26.6095C124.161 26.5688 124.254 26.5428 124.306 26.5292C124.36 26.5148 124.396 26.5066 124.407 26.5041C124.427 26.4998 124.402 26.5057 124.307 26.5223C123.895 26.5949 122.923 26.738 120.762 27.0096L122.009 36.9315C124.158 36.6615 125.355 36.4915 126.039 36.3713C126.305 36.3245 126.795 36.2366 127.278 36.0715C127.48 36.0025 128.189 35.7588 128.908 35.1669C129.336 34.8142 129.74 34.3628 130.063 33.8066C130.214 33.5466 130.318 33.3141 130.387 33.1386C130.421 33.0538 130.446 32.9834 130.463 32.9375C130.471 32.9145 130.477 32.8956 130.481 32.8837C130.483 32.8776 130.485 32.8727 130.486 32.8695C130.486 32.8683 130.487 32.8664 130.487 32.8657C130.487 32.865 130.488 32.8643 130.488 32.8641L121 29.7034ZM120.729 27.0139L120.614 27.0291L121.927 36.9425L122.042 36.9273L120.729 27.0139Z" fill="#F9F7F1" mask="url(#path-33-inside-2_0_1)"/>
<path d="M154.134 45.2418C153.744 44.0841 153.258 42.9095 152.359 42.0826C150.652 40.5115 147.821 40.6853 145.923 42.0219C144.026 43.3584 142.941 45.5894 142.374 47.839C141.855 51.4217 141.986 53.9599 143.066 57.7299C143.592 59.566 144.402 61.3886 145.815 62.6746C147.229 63.9605 149.345 64.6001 151.11 63.8694C152.793 63.1724 153.805 61.4359 154.419 59.7213C156.078 55.0905 155.701 49.9029 154.134 45.2418Z" fill="#D196A8"/>
<path d="M68.4177 73.9594C68.7095 74.1923 68.922 74.5012 69.2003 74.7475C69.4651 74.9821 69.7721 75.1593 70.0791 75.3331C70.3641 75.4935 70.6188 75.0564 70.3338 74.8961C70.0335 74.7273 69.7299 74.5585 69.4803 74.3189C69.2374 74.0843 69.0401 73.8126 68.7753 73.6017C68.5223 73.4008 68.163 73.7569 68.4177 73.9594Z" fill="white"/>
<path d="M95.7888 70.7361C96.1379 70.24 96.4753 69.7354 96.8008 69.2241C96.9762 68.949 96.5394 68.6941 96.3639 68.9692C96.0384 69.4806 95.7011 69.9852 95.3519 70.4813C95.1647 70.748 95.6033 71.0011 95.7888 70.7361Z" fill="white"/>
<path d="M76.539 41.9678C76.7414 44.4452 77.3402 47.9318 79.6728 49.3207C80.7354 49.9535 82.159 50.4058 83.4004 50.1999C84.6603 49.9906 85.5778 49.0574 86.3436 48.1056C86.4954 47.9166 86.2289 47.6466 86.0754 47.8373C85.3535 48.7351 84.5119 49.6261 83.3228 49.8185C82.1033 50.0159 80.6342 49.5299 79.6273 48.8448C77.6337 47.4879 77.1024 44.1921 76.9202 41.9695C76.8983 41.7248 76.5188 41.7231 76.539 41.9678Z" fill="#FF9B8D"/>
</g>
<defs>
<clipPath id="clip0_0_1">
<rect width="134" height="105" fill="white" transform="translate(21.5 17)"/>
</clipPath>
</defs>
</svg>
