<svg width="177" height="167" viewBox="0 0 177 167" fill="none" xmlns="http://www.w3.org/2000/svg">
<rect x="0.0654297" width="176.435" height="167" rx="10" fill="#FA6E5A"/>
<path d="M17.1551 123V110.148H19.9811V123H17.1551ZM22.2657 123V113.694H24.6777V114.954H24.7137C25.4217 113.946 26.3697 113.442 27.5577 113.442C28.9017 113.442 29.8077 113.958 30.2757 114.99C30.9597 113.958 31.8957 113.442 33.0837 113.442C35.3517 113.442 36.4857 114.552 36.4857 116.772V123H33.9297V117.726C33.9297 116.97 33.8517 116.436 33.6957 116.124C33.4677 115.68 33.0237 115.458 32.3637 115.458C31.2237 115.458 30.6537 116.244 30.6537 117.816V123H28.0977V117.78C28.0977 117 28.0437 116.478 27.9357 116.214C27.7197 115.71 27.2577 115.458 26.5497 115.458C26.1537 115.458 25.8057 115.59 25.5057 115.854C25.0497 116.226 24.8217 116.808 24.8217 117.6V123H22.2657ZM38.5062 126.276V113.694H40.9362V114.882H40.9722C41.5602 113.922 42.4842 113.442 43.7442 113.442C45.1242 113.442 46.1922 113.946 46.9482 114.954C47.6322 115.854 47.9742 117.018 47.9742 118.446C47.9742 119.778 47.6322 120.888 46.9482 121.776C46.2042 122.76 45.1842 123.252 43.8882 123.252C42.6522 123.252 41.7222 122.784 41.0982 121.848H41.0622V126.276H38.5062ZM43.2042 121.326C44.6802 121.326 45.4182 120.342 45.4182 118.374C45.4182 117.534 45.2502 116.85 44.9142 116.322C44.5182 115.686 43.9422 115.368 43.1862 115.368C42.4062 115.368 41.8302 115.68 41.4582 116.304C41.1342 116.832 40.9722 117.522 40.9722 118.374C40.9722 119.214 41.1402 119.892 41.4762 120.408C41.8602 121.02 42.4362 121.326 43.2042 121.326ZM49.5101 123V113.694H51.9401V115.422H51.9761C52.2041 114.846 52.6001 114.372 53.1641 114C53.7281 113.628 54.3221 113.442 54.9461 113.442C55.1381 113.442 55.3241 113.472 55.5041 113.532V115.908C55.2401 115.848 54.9341 115.818 54.5861 115.818C52.9061 115.818 52.0661 116.814 52.0661 118.806V123H49.5101ZM56.2182 118.356C56.2182 116.868 56.6562 115.68 57.5322 114.792C58.4082 113.892 59.5722 113.442 61.0242 113.442C62.4882 113.442 63.6582 113.892 64.5342 114.792C65.4102 115.68 65.8482 116.868 65.8482 118.356C65.8482 119.832 65.4102 121.02 64.5342 121.92C63.6582 122.808 62.4882 123.252 61.0242 123.252C59.5722 123.252 58.4082 122.808 57.5322 121.92C56.6562 121.02 56.2182 119.832 56.2182 118.356ZM58.7742 118.356C58.7742 119.208 58.9362 119.886 59.2602 120.39C59.6442 121.014 60.2322 121.326 61.0242 121.326C62.5362 121.326 63.2922 120.336 63.2922 118.356C63.2922 116.364 62.5362 115.368 61.0242 115.368C59.5242 115.368 58.7742 116.364 58.7742 118.356ZM75.8081 113.694L72.6581 123H69.8141L66.6281 113.694H69.3101L71.2721 120.048H71.3081L73.2701 113.694H75.8081ZM85.6816 118.968H78.9676C79.0396 120.54 79.8016 121.326 81.2536 121.326C81.7456 121.326 82.1896 121.194 82.5856 120.93C82.9576 120.702 83.1856 120.432 83.2696 120.12H85.5196C84.8356 122.208 83.3836 123.252 81.1636 123.252C79.7116 123.252 78.5536 122.802 77.6896 121.902C76.8376 120.99 76.4116 119.808 76.4116 118.356C76.4116 116.94 76.8496 115.77 77.7256 114.846C78.6136 113.91 79.7596 113.442 81.1636 113.442C82.6756 113.442 83.8456 114.006 84.6736 115.134C85.4416 116.166 85.7776 117.444 85.6816 118.968ZM78.9676 117.348H83.1256C82.8856 116.028 82.2076 115.368 81.0916 115.368C80.3716 115.368 79.8196 115.608 79.4356 116.088C79.1476 116.448 78.9916 116.868 78.9676 117.348ZM17.1551 147V134.148H22.9511C24.4511 134.148 25.5911 134.574 26.3711 135.426C27.0551 136.158 27.3971 137.106 27.3971 138.27C27.3971 139.434 27.0551 140.382 26.3711 141.114C25.5911 141.966 24.4511 142.392 22.9511 142.392H19.9811V147H17.1551ZM19.9811 136.344V140.196H22.1771C22.9451 140.196 23.5211 140.082 23.9051 139.854C24.4091 139.542 24.6611 139.014 24.6611 138.27C24.6611 137.526 24.4091 136.998 23.9051 136.686C23.5211 136.458 22.9451 136.344 22.1771 136.344H19.9811ZM37.7109 142.968H30.9969C31.0689 144.54 31.8309 145.326 33.2829 145.326C33.7749 145.326 34.2189 145.194 34.6149 144.93C34.9869 144.702 35.2149 144.432 35.2989 144.12H37.5489C36.8649 146.208 35.4129 147.252 33.1929 147.252C31.7409 147.252 30.5829 146.802 29.7189 145.902C28.8669 144.99 28.4409 143.808 28.4409 142.356C28.4409 140.94 28.8789 139.77 29.7549 138.846C30.6429 137.91 31.7889 137.442 33.1929 137.442C34.7049 137.442 35.8749 138.006 36.7029 139.134C37.4709 140.166 37.8069 141.444 37.7109 142.968ZM30.9969 141.348H35.1549C34.9149 140.028 34.2369 139.368 33.1209 139.368C32.4009 139.368 31.8489 139.608 31.4649 140.088C31.1769 140.448 31.0209 140.868 30.9969 141.348ZM39.2269 147V137.694H41.6569V139.422H41.6929C41.9209 138.846 42.3169 138.372 42.8809 138C43.4449 137.628 44.0389 137.442 44.6629 137.442C44.8549 137.442 45.0409 137.472 45.2209 137.532V139.908C44.9569 139.848 44.6509 139.818 44.3029 139.818C42.6229 139.818 41.7829 140.814 41.7829 142.806V147H39.2269ZM46.781 147V139.404H45.251V137.694H46.781V136.974C46.781 136.122 47.045 135.438 47.573 134.922C48.113 134.406 48.887 134.148 49.895 134.148C50.063 134.148 50.291 134.16 50.579 134.184C50.939 134.208 51.161 134.22 51.245 134.22V136.128C50.945 136.092 50.633 136.074 50.309 136.074C49.661 136.074 49.337 136.428 49.337 137.136V137.694H51.101V139.404H49.337V147H46.781ZM51.9291 142.356C51.9291 140.868 52.3671 139.68 53.2431 138.792C54.1191 137.892 55.2831 137.442 56.7351 137.442C58.1991 137.442 59.3691 137.892 60.2451 138.792C61.1211 139.68 61.5591 140.868 61.5591 142.356C61.5591 143.832 61.1211 145.02 60.2451 145.92C59.3691 146.808 58.1991 147.252 56.7351 147.252C55.2831 147.252 54.1191 146.808 53.2431 145.92C52.3671 145.02 51.9291 143.832 51.9291 142.356ZM54.4851 142.356C54.4851 143.208 54.6471 143.886 54.9711 144.39C55.3551 145.014 55.9431 145.326 56.7351 145.326C58.2471 145.326 59.0031 144.336 59.0031 142.356C59.0031 140.364 58.2471 139.368 56.7351 139.368C55.2351 139.368 54.4851 140.364 54.4851 142.356ZM63.221 147V137.694H65.651V139.422H65.687C65.915 138.846 66.311 138.372 66.875 138C67.439 137.628 68.033 137.442 68.657 137.442C68.849 137.442 69.035 137.472 69.215 137.532V139.908C68.951 139.848 68.645 139.818 68.297 139.818C66.617 139.818 65.777 140.814 65.777 142.806V147H63.221ZM70.2891 147V137.694H72.7011V138.954H72.7371C73.4451 137.946 74.3931 137.442 75.5811 137.442C76.9251 137.442 77.8311 137.958 78.2991 138.99C78.9831 137.958 79.9191 137.442 81.1071 137.442C83.3751 137.442 84.5091 138.552 84.5091 140.772V147H81.9531V141.726C81.9531 140.97 81.8751 140.436 81.7191 140.124C81.4911 139.68 81.0471 139.458 80.3871 139.458C79.2471 139.458 78.6771 140.244 78.6771 141.816V147H76.1211V141.78C76.1211 141 76.0671 140.478 75.9591 140.214C75.7431 139.71 75.2811 139.458 74.5731 139.458C74.1771 139.458 73.8291 139.59 73.5291 139.854C73.0731 140.226 72.8451 140.808 72.8451 141.6V147H70.2891ZM92.3256 143.4V142.446C92.1216 142.626 91.6776 142.764 90.9936 142.86C90.2136 142.98 89.6976 143.094 89.4456 143.202C88.9416 143.43 88.6896 143.814 88.6896 144.354C88.6896 145.146 89.2116 145.542 90.2556 145.542C91.6356 145.542 92.3256 144.828 92.3256 143.4ZM88.9776 140.556H86.4216C86.4936 139.452 86.9796 138.636 87.8796 138.108C88.6236 137.664 89.5956 137.442 90.7956 137.442C93.5196 137.442 94.8816 138.324 94.8816 140.088V144.93C94.8816 145.962 94.9896 146.652 95.2056 147H92.6136C92.5056 146.664 92.4456 146.364 92.4336 146.1C91.7016 146.868 90.6576 147.252 89.3016 147.252C88.3656 147.252 87.6156 147.024 87.0516 146.568C86.4396 146.076 86.1336 145.374 86.1336 144.462C86.1336 143.514 86.4636 142.806 87.1236 142.338C87.6036 142.014 88.3296 141.78 89.3016 141.636C90.6816 141.444 91.3836 141.342 91.4076 141.33C92.0196 141.174 92.3256 140.868 92.3256 140.412C92.3256 139.908 92.1576 139.56 91.8216 139.368C91.5816 139.224 91.1976 139.152 90.6696 139.152C89.6256 139.152 89.0616 139.62 88.9776 140.556ZM96.8656 147V137.694H99.2956V138.99H99.3496C99.9856 137.958 100.934 137.442 102.194 137.442C103.478 137.442 104.384 137.79 104.912 138.486C105.368 139.086 105.596 140.016 105.596 141.276V147H103.04V141.744C103.04 140.22 102.494 139.458 101.402 139.458C100.706 139.458 100.202 139.668 99.8896 140.088C99.5776 140.508 99.4216 141.186 99.4216 142.122V147H96.8656ZM116.355 142.968H109.641C109.713 144.54 110.475 145.326 111.927 145.326C112.419 145.326 112.863 145.194 113.259 144.93C113.631 144.702 113.859 144.432 113.943 144.12H116.193C115.509 146.208 114.057 147.252 111.837 147.252C110.385 147.252 109.227 146.802 108.363 145.902C107.511 144.99 107.085 143.808 107.085 142.356C107.085 140.94 107.523 139.77 108.399 138.846C109.287 137.91 110.433 137.442 111.837 137.442C113.349 137.442 114.519 138.006 115.347 139.134C116.115 140.166 116.451 141.444 116.355 142.968ZM109.641 141.348H113.799C113.559 140.028 112.881 139.368 111.765 139.368C111.045 139.368 110.493 139.608 110.109 140.088C109.821 140.448 109.665 140.868 109.641 141.348ZM126.691 142.968H119.977C120.049 144.54 120.811 145.326 122.263 145.326C122.755 145.326 123.199 145.194 123.595 144.93C123.967 144.702 124.195 144.432 124.279 144.12H126.529C125.845 146.208 124.393 147.252 122.173 147.252C120.721 147.252 119.563 146.802 118.699 145.902C117.847 144.99 117.421 143.808 117.421 142.356C117.421 140.94 117.859 139.77 118.735 138.846C119.623 137.91 120.769 137.442 122.173 137.442C123.685 137.442 124.855 138.006 125.683 139.134C126.451 140.166 126.787 141.444 126.691 142.968ZM119.977 141.348H124.135C123.895 140.028 123.217 139.368 122.101 139.368C121.381 139.368 120.829 139.608 120.445 140.088C120.157 140.448 120.001 140.868 119.977 141.348Z" fill="#FEF9F3"/>
<g clip-path="url(#clip0_1_2559)">
<path d="M58.0651 86.7199C58.0651 87.1247 55.6935 87.4511 52.7695 87.4511C49.8456 87.4511 47.474 87.1247 47.474 86.7199C47.474 86.3151 49.8456 85.9888 52.7695 85.9888C55.6935 85.9888 58.0651 86.3151 58.0651 86.7199Z" fill="#FDF9E7"/>
<path d="M69.9233 93.9998C80.288 93.9998 88.6902 92.838 88.6902 91.4048C88.6902 89.9716 80.288 88.8097 69.9233 88.8097C59.5586 88.8097 51.1564 89.9716 51.1564 91.4048C51.1564 92.838 59.5586 93.9998 69.9233 93.9998Z" fill="#F05D48"/>
<path d="M118.485 93.1119C130.822 93.1119 140.822 91.7295 140.822 90.0242C140.822 88.3189 130.822 86.9365 118.485 86.9365C106.149 86.9365 96.1485 88.3189 96.1485 90.0242C96.1485 91.7295 106.149 93.1119 118.485 93.1119Z" fill="#F05D48"/>
<path d="M89.8323 87.9091C103.589 87.9091 114.74 86.3679 114.74 84.4668C114.74 82.5657 103.589 81.0245 89.8323 81.0245C76.076 81.0245 64.9242 82.5657 64.9242 84.4668C64.9242 86.3679 76.076 87.9091 89.8323 87.9091Z" fill="#F05D48"/>
<path d="M146.57 83.7076C146.57 84.5862 141.412 85.3016 135.046 85.3016C128.683 85.3016 123.521 84.5893 123.521 83.7076C123.521 82.829 128.68 82.1135 135.046 82.1135C141.408 82.1135 146.57 82.8258 146.57 83.7076Z" fill="#F05D48"/>
<path d="M47.0778 78.8878C41.1457 77.5259 35.5818 72.8724 32.6485 67.4375C29.7183 62.0026 28.5824 55.4475 30.3206 49.5168C32.0556 43.5862 36.8987 38.4839 42.9119 37.2005C50.2296 35.6378 57.6097 39.692 63.1985 44.6907C65.4828 46.7335 67.636 48.9803 70.279 50.5241C72.9253 52.0648 76.2362 52.8242 79.0571 51.6381C82.4429 50.2135 84.181 46.5295 85.8287 43.2347C89.8854 35.1201 95.209 27.52 102.224 21.7996C109.239 16.076 118.048 12.3294 127.079 12.3607C132.705 12.3796 138.578 14.0144 142.498 18.0717C147.466 23.2148 148.333 31.2416 146.851 38.2549C145.369 45.2681 141.902 51.6663 139.146 58.2779C136.391 64.8895 134.3 72.1664 135.776 79.1796L47.0778 78.8878Z" fill="#F05D48"/>
<path d="M84.7051 35.6315C86.4214 32.7979 87.9099 29.7761 88.5683 26.5284C89.4296 22.2796 88.6932 17.7955 85.7661 14.4819C81.6407 9.81581 73.1498 7.60358 67.3331 9.93191C64.9365 10.8921 62.8551 12.9067 62.3059 15.439C61.3729 19.7254 64.6245 23.4344 66.6403 26.8547C67.7232 28.6935 68.5314 30.8336 68.6094 32.9894C68.6812 35.0478 67.3986 36.9494 67.7107 39.0267C67.8854 40.194 68.5844 41.239 69.4894 41.9952C71.4678 43.6489 74.2638 44.2514 76.7446 43.6144C80.5798 42.6322 82.7829 38.8071 84.7051 35.6315Z" fill="#F05D48"/>
<path d="M75.9178 22.8068H33.3381C33.257 22.8068 33.1883 22.8727 33.1883 22.9574V56.5677C33.1883 56.6493 33.2539 56.7183 33.3381 56.7183H75.9178C75.999 56.7183 76.0676 56.6524 76.0676 56.5677V22.9574C76.0676 22.8759 75.999 22.8068 75.9178 22.8068ZM63.0082 39.6135H59.042V35.7382H63.0082V39.6135ZM63.3077 35.7382H67.2739V39.6135H63.3077V35.7382ZM54.4797 39.9148V43.7901H50.5135V39.9148H54.4797ZM50.5135 39.6135V35.7382H54.4797V39.6135H50.5135V39.6135ZM54.7793 39.9148H58.7455V43.7901H54.7793V39.9148ZM54.7793 39.6135V35.7382H58.7455V39.6135H54.7793V39.6135ZM59.042 35.4401V31.5648H63.0082V35.4401H59.042V35.4401ZM58.7455 35.4401H54.7793V31.5648H58.7455V35.4401ZM54.4797 35.4401H50.5135V31.5648H54.4797V35.4401V35.4401ZM50.214 35.4401H46.2478V31.5648H50.214V35.4401ZM50.214 35.7382V39.6135H46.2478V35.7382H50.214ZM45.9513 39.6135H41.9851V35.7382H45.9513V39.6135ZM41.6855 39.6135H37.7193V35.7382H41.6855V39.6135ZM41.6855 39.9148V43.7901H37.7193V39.9148H41.6855ZM41.9851 39.9148H45.9513V43.7901H41.9851V39.9148ZM46.2478 39.9148H50.214V43.7901H46.2478V39.9148ZM50.214 44.0882V47.9635H46.2478V44.0882H50.214ZM50.5135 44.0882H54.4797V47.9635H50.5135V44.0882ZM54.7793 44.0882H58.7455V47.9635H54.7793V44.0882ZM59.042 44.0882H63.0082V47.9635H59.042V44.0882ZM59.042 43.787V39.9148H63.0082V43.7901H59.042V43.787ZM63.3077 39.9148H67.2739V43.7901H63.3077V39.9148ZM67.5704 39.9148H71.5366V43.7901H67.5704V39.9148ZM67.5704 39.6135V35.7382H71.5366V39.6135H67.5704V39.6135ZM67.5704 35.4401V31.5648H71.5366V35.4401H67.5704V35.4401ZM67.2739 35.4401H63.3077V31.5648H67.2739V35.4401V35.4401ZM63.3077 31.2635V27.3913H67.2739V31.2667H63.3077V31.2635ZM63.0082 31.2635H59.042V27.3913H63.0082V31.2635ZM58.7455 31.2635H54.7793V27.3913H58.7455V31.2635ZM54.4797 31.2635H50.5135V27.3913H54.4797V31.2635V31.2635ZM50.214 31.2635H46.2478V27.3913H50.214V31.2635ZM45.9513 31.2635H41.9851V27.3913H45.9513V31.2635ZM45.9513 31.5648V35.4401H41.9851V31.5648H45.9513ZM41.6855 35.4401H37.7193V31.5648H41.6855V35.4401ZM37.4198 35.4401H33.4879V31.5648H37.4198V35.4401ZM37.4198 35.7382V39.6135H33.4879V35.7382H37.4198ZM37.4198 39.9148V43.7901H33.4879V39.9148H37.4198ZM37.4198 44.0882V47.9635H33.4879V44.0882H37.4198ZM37.7193 44.0882H41.6855V47.9635H37.7193V44.0882ZM41.9851 44.0882H45.9513V47.9635H41.9851V44.0882ZM45.9513 48.2616V52.137H41.9851V48.2616H45.9513ZM46.2478 48.2616H50.214V52.137H46.2478V48.2616ZM50.5135 48.2616H54.4797V52.137H50.5135V48.2616ZM54.7793 48.2616H58.7455V52.137H54.7793V48.2616ZM59.042 48.2616H63.0082V52.137H59.042V48.2616ZM63.3077 48.2616H67.2739V52.137H63.3077V48.2616ZM63.3077 47.9635V44.0882H67.2739V47.9635H63.3077ZM67.5704 44.0882H71.5366V47.9635H67.5704V44.0882ZM71.8362 44.0882H75.7681V47.9635H71.8362V44.0882ZM71.8362 43.787V39.9148H75.7681V43.7901H71.8362V43.787ZM71.8362 39.6135V35.7382H75.7681V39.6135H71.8362V39.6135ZM71.8362 35.4401V31.5648H75.7681V35.4401H71.8362V35.4401ZM71.8362 31.2635V27.3913H75.7681V31.2667H71.8362V31.2635ZM71.5366 31.2635H67.5704V27.3913H71.5366V31.2635ZM67.5704 27.0901V23.1081H71.5366V27.0901H67.5704ZM67.2739 27.0901H63.3077V23.1081H67.2739V27.0901V27.0901ZM63.0082 27.0901H59.042V23.1081H63.0082V27.0901ZM58.7455 27.0901H54.7793V23.1081H58.7455V27.0901ZM54.4797 27.0901H50.5135V23.1081H54.4797V27.0901V27.0901ZM50.214 27.0901H46.2478V23.1081H50.214V27.0901ZM45.9513 27.0901H41.9851V23.1081H45.9513V27.0901ZM41.6855 27.0901H37.7193V23.1081H41.6855V27.0901ZM41.6855 27.3913V31.2667H37.7193V27.3913H41.6855ZM37.4198 31.2635H33.4879V27.3913H37.4198V31.2635ZM33.4879 48.2616H37.4198V52.137H33.4879V48.2616ZM37.7193 48.2616H41.6855V52.137H37.7193V48.2616ZM41.6855 52.4382V56.4202H37.7193V52.4382H41.6855ZM41.9851 52.4382H45.9513V56.4202H41.9851V52.4382ZM46.2478 52.4382H50.214V56.4202H46.2478V52.4382ZM50.5135 52.4382H54.4797V56.4202H50.5135V52.4382ZM54.7793 52.4382H58.7455V56.4202H54.7793V52.4382ZM59.042 52.4382H63.0082V56.4202H59.042V52.4382ZM63.3077 52.4382H67.2739V56.4202H63.3077V52.4382ZM67.5704 52.4382H71.5366V56.4202H67.5704V52.4382ZM67.5704 52.137V48.2616H71.5366V52.137H67.5704ZM71.8362 48.2616H75.7681V52.137H71.8362V48.2616ZM75.7681 27.0901H71.8362V23.1081H75.7681V27.0901ZM37.4198 23.1081V27.0901H33.4879V23.1081H37.4198ZM33.4879 52.4382H37.4198V56.4202H33.4879V52.4382ZM71.8362 56.4202V52.4382H75.7681V56.4202H71.8362Z" fill="#E7DFC2"/>
<path d="M50.7506 32.4183C50.7506 32.4183 51.7023 40.9629 56.4237 42.4503L65.1113 39.9995C65.1113 39.9995 59.925 37.599 59.3945 32.4183H50.7506Z" fill="#FEDEA6"/>
<path d="M46.2479 40.3166C46.2479 40.3166 45.524 50.0441 41.9291 51.7355L35.3136 48.9458C35.3136 48.9458 39.2642 46.2159 39.6667 40.3166H46.2479Z" fill="#F7F4E3"/>
<path d="M68.5885 25.6176L62.8025 27.3093L64.8047 34.2333L70.5906 32.5415L68.5885 25.6176Z" fill="#F7F4E3"/>
<path d="M68.2876 26.3036L63.4246 27.7255L64.7175 32.1968L69.5806 30.7749L68.2876 26.3036Z" fill="#FDFDFD"/>
<path d="M52.1468 46.6212L47.6959 45.3946L46.2451 50.7177L50.6961 51.9443L52.1468 46.6212Z" fill="#D2CDB8"/>
<path d="M51.6788 46.9474L47.9381 45.9165L47.0004 49.3573L50.7411 50.3882L51.6788 46.9474Z" fill="#E7DFC2"/>
<path d="M122.011 43.9343C121.378 43.9343 120.741 43.9312 120.108 43.9312C119.796 43.9312 119.496 44.2073 119.512 44.5305C119.527 44.8569 119.774 45.1299 120.108 45.1299C120.741 45.1299 121.378 45.133 122.011 45.133C122.323 45.133 122.623 44.8569 122.607 44.5336C122.592 44.2104 122.345 43.9374 122.011 43.9343Z" fill="#CCC6AD"/>
<path d="M140.644 59.8594C134.802 54.6379 128.961 49.4196 123.119 44.1981C122.261 43.4324 120.991 44.7001 121.855 45.4689L139.38 61.1303C140.235 61.8991 141.505 60.6313 140.644 59.8594Z" fill="#CCC6AD"/>
<path d="M143.272 82.0161H141.586C140.042 81.5706 137.577 81.285 134.796 81.285C132.016 81.285 129.554 81.5737 128.006 82.0161H126.321C126.243 82.4711 126.321 83.1081 126.321 83.1081C126.321 84.1154 130.115 84.9313 134.793 84.9313C139.474 84.9313 143.265 84.1154 143.265 83.1081C143.424 82.4335 143.272 82.0161 143.272 82.0161Z" fill="#CCC6AD"/>
<path d="M143.272 82.0164C143.272 83.0237 139.48 83.8427 134.803 83.8427C130.122 83.8427 126.33 83.0237 126.33 82.0164C126.33 81.0123 130.125 80.1933 134.803 80.1933C135.143 80.1933 135.477 80.1964 135.804 80.2058C136.107 80.2152 136.404 80.2247 136.697 80.2403C140.463 80.4223 143.272 81.1535 143.272 82.0164Z" fill="#E7DFC2"/>
<path d="M136.697 80.2371L135.82 81.7559L135.804 81.781V80.2057C136.104 80.2152 136.403 80.2214 136.697 80.2371Z" fill="#E7DFC2"/>
<path d="M139.371 60.2611L134.079 81.3009C133.795 82.4242 135.52 82.9043 135.804 81.7778C137.567 74.7646 139.334 67.7513 141.097 60.7381C141.381 59.6147 139.655 59.1377 139.371 60.2611Z" fill="#E7DFC2"/>
<path d="M141.037 59.4639C135.195 54.2424 129.354 49.0241 123.512 43.8026C122.654 43.0369 121.384 44.3046 122.248 45.0766L139.773 60.7379C140.628 61.5036 141.898 60.2359 141.037 59.4639Z" fill="#E7DFC2"/>
<path d="M105.417 43.9313C105.417 43.9313 110.528 35.5625 117.144 39.5508C123.76 43.5391 118.829 52.0146 118.829 52.0146L105.417 43.9313Z" fill="#E7DFC2"/>
<path d="M118.828 52.0178C118.46 52.636 116.117 51.93 113.236 50.4175C112.615 50.0912 111.969 49.7272 111.314 49.3318C110.659 48.9364 110.035 48.5347 109.457 48.1394C106.774 46.2974 105.051 44.5527 105.419 43.9345C105.763 43.3603 107.819 43.9314 110.431 45.2368C111.224 45.6322 112.072 46.0966 112.937 46.6206C113.801 47.1415 114.606 47.6718 115.33 48.1927C117.696 49.8872 119.168 51.4405 118.828 52.0178Z" fill="#C1B894"/>
<path d="M115.324 48.1864C115.083 49.2564 114.278 50.113 113.236 50.4143C112.971 50.4927 112.687 50.5335 112.394 50.5335C110.946 50.5335 109.738 49.5043 109.454 48.133C109.413 47.9322 109.392 47.722 109.392 47.5086C109.392 46.5954 109.791 45.7827 110.428 45.2304C111.22 45.6258 112.069 46.0902 112.933 46.6143C113.795 47.1383 114.6 47.6686 115.324 48.1864Z" fill="#FAC978"/>
<path d="M122.523 42.9836C120.604 42.9836 120.601 45.9834 122.523 45.9834C124.442 45.9834 124.445 42.9836 122.523 42.9836Z" fill="#E7DFC2"/>
<path d="M122.523 43.8653C121.733 43.8653 121.73 45.1016 122.523 45.1016C123.316 45.1016 123.316 43.8653 122.523 43.8653Z" fill="#E7DFC2"/>
<path d="M140.07 58.4724C137.602 58.4724 137.599 62.3289 140.07 62.3289C142.539 62.3289 142.542 58.4724 140.07 58.4724Z" fill="#E7DFC2"/>
<path d="M140.07 59.6209C139.071 59.6209 139.068 61.1835 140.07 61.1835C141.068 61.1835 141.071 59.6209 140.07 59.6209Z" fill="#E7DFC2"/>
<path d="M58.0591 77.9308H47.4805C47.4805 77.9308 47.1934 84.2882 50.367 86.5413C50.6291 86.7264 50.9568 86.8237 51.2907 86.8237H52.7698H54.2489C54.5828 86.8237 54.9105 86.7264 55.1726 86.5413C58.3462 84.2914 58.0591 77.9308 58.0591 77.9308Z" fill="#536969"/>
<path d="M58.0652 77.9338C58.0652 78.1221 56.3365 78.2852 54.0085 78.326C53.6122 78.3355 53.1941 78.3386 52.7666 78.3386C52.4015 78.3386 52.0488 78.3355 51.7025 78.3292C49.2903 78.2947 47.4741 78.1283 47.4741 77.9338C47.4741 77.7549 49.0126 77.6012 51.1376 77.5478C51.6494 77.5353 52.1986 77.529 52.7697 77.529C53.219 77.529 53.6559 77.5321 54.071 77.5416C56.3645 77.5855 58.0652 77.7455 58.0652 77.9338Z" fill="#405050"/>
<path d="M59.5757 79.7946C59.014 79.1137 58.1028 78.9913 57.2759 79.0195C56.5114 79.0447 56.5082 80.2433 57.2759 80.2182C57.8781 80.1994 58.5241 80.2151 58.833 80.8176C59.1201 81.3698 59.0702 82.0884 58.7893 82.6344C58.1184 83.9524 56.5862 84.3164 55.2257 84.1312C54.9074 84.0873 54.6297 84.4387 54.6297 84.7306C54.6297 85.0914 54.9043 85.286 55.2257 85.3299C56.6923 85.5276 58.3057 85.1228 59.3105 83.9712C60.3028 82.8321 60.5868 81.0215 59.5757 79.7946Z" fill="#536969"/>
<path opacity="0.5" d="M55.753 74.3472C54.951 75.1568 54.0866 76.0825 54.0616 77.2278C54.0585 77.3565 54.0679 77.4851 54.0741 77.6169C54.0897 77.8899 54.1053 78.1629 54.0148 78.4014C53.6185 78.4108 53.2004 78.414 52.7728 78.414C52.4077 78.414 52.0551 78.4108 51.7087 78.4045C51.4809 78.1943 51.2875 77.9182 51.1408 77.6232C50.9879 77.3408 50.8756 77.0427 50.8069 76.776C50.6758 76.2708 50.6665 75.731 50.7975 75.2258C51.1377 73.9048 52.3235 72.8253 52.2985 71.4635C52.2829 70.5817 51.7524 69.7972 51.1626 69.1477C50.5697 68.5013 49.8863 67.9207 49.4432 67.1614C48.6849 65.8685 48.7723 64.1144 49.6929 62.9346C50.6103 61.7547 52.3235 61.2558 53.709 61.8018C55.0976 62.3509 56.0213 63.9262 55.7779 65.4041C55.6188 66.3675 55.029 67.3528 55.4035 68.2565C55.6094 68.7492 56.0588 69.0849 56.4364 69.4646C56.9606 69.998 57.3663 70.6978 57.3819 71.4478C57.4068 72.59 56.5549 73.5376 55.753 74.3472Z" fill="#54C1BB"/>
<path d="M63.342 79.3208C63.342 79.3208 56.611 52.4978 59.6286 49.2564C62.6461 46.0149 87.7353 44.515 90.4845 47.0253C93.2337 49.5356 93.0121 79.2863 93.0121 79.2863L63.342 79.3208Z" fill="#54C1BB"/>
<path d="M90.4874 47.0253C90.4032 46.95 90.2971 46.8747 90.1722 46.8057C81.8467 46.2879 66.9679 47.7408 64.6868 50.1915C62.0094 53.0721 67.0147 74.5418 68.1693 79.3145L93.0119 79.2863C93.0119 79.2863 93.2366 49.5357 90.4874 47.0253Z" fill="#8DD1CD"/>
<path d="M98.0861 56.9943C98.0861 56.9943 103.263 72.6337 104.655 73.0228C106.047 73.4119 120.307 76.1137 120.307 76.1137L119.612 79.6125C119.612 79.6125 102.236 80.1585 98.0861 77.2025C93.9327 74.2466 98.0861 56.9943 98.0861 56.9943Z" fill="#DDBB8F"/>
<path d="M98.0861 56.9943C98.0861 56.9943 93.9327 74.2466 98.0861 77.2025C99.6776 78.3353 103.207 78.9535 106.958 79.2861L107.963 74.2466L107.819 74.1587L107.713 73.6724C106.168 73.3617 105.007 73.117 104.658 73.0197C103.263 72.6337 98.0861 56.9943 98.0861 56.9943Z" fill="#405050"/>
<path d="M109.439 74.0177C108.768 74.73 108.315 75.6149 108.063 76.5405C107.81 77.4662 107.747 78.4296 107.794 79.3835C107.8 79.4871 107.694 79.6 107.588 79.6251C107.482 79.6502 107.37 79.6283 107.261 79.6126C107.151 79.5969 107.033 79.5906 106.939 79.6471C106.846 79.7036 106.792 79.8134 106.693 79.8542C106.565 79.9044 106.427 79.8322 106.299 79.7852C106.022 79.6816 105.713 79.7036 105.416 79.6816C105.12 79.6628 104.795 79.5843 104.624 79.3521C104.499 79.1858 104.48 78.9693 104.465 78.7653C104.393 77.8177 104.33 76.8135 104.777 75.9632C105.061 75.4234 105.529 74.981 105.772 74.4256C105.891 74.1557 105.95 73.8639 106.112 73.616C106.271 73.3681 106.574 73.1673 106.874 73.2332C107.123 73.2897 107.298 73.5124 107.541 73.5815C107.763 73.6411 107.994 73.5658 108.222 73.5407C108.702 73.4873 109.133 73.6537 109.439 74.0177Z" fill="#536969"/>
<path d="M72.2758 79.3206H98.6007C97.8643 74.1806 97.1809 68.4916 97.2589 65.5419C97.3244 63.1257 98.0827 57.0319 98.0827 57.0319C97.7925 56.6867 91.2924 51.6253 86 51.7822C77.0222 52.052 72.46 58.4283 72.46 58.4283C72.46 58.4283 72.7627 63.1571 72.9842 65.6141C73.2495 68.5387 72.7595 74.1995 72.2758 79.3206Z" fill="#F7F4E3"/>
<path d="M97.2558 66.0974C97.2558 65.8903 97.2558 65.6926 97.262 65.5043C97.3244 63.1823 98.0265 57.4744 98.0827 57.0257C97.8081 56.7119 93.1304 53.0625 88.5027 52.0426L88.5432 56.5079C88.5432 56.5079 90.2658 67.1329 91.0272 79.2829H98.5976C97.9079 74.4599 97.2651 69.16 97.2558 66.0974Z" fill="#405050"/>
<path d="M89.1081 51.4025L93.2647 56.3761L90.1816 55.4441L88.5402 56.5079L86.671 51.8136L89.1081 51.4025Z" fill="#536969"/>
<path d="M72.2758 79.2862H84.3336C83.0979 68.4165 82.6953 58.1084 82.6953 58.1084L81.341 52.4852C75.4494 54.2236 72.46 58.3939 72.46 58.3939C72.46 58.3939 72.7627 63.1228 72.9842 65.5798C73.2495 68.5043 72.7595 74.162 72.2758 79.2862Z" fill="#405050"/>
<path d="M97.0469 40.1688C99.0971 38.7316 100.604 36.3907 101.154 33.7831C101.328 32.9579 101.409 32.0949 101.247 31.2634C101.088 30.4318 100.66 29.6348 99.9989 29.1923C99.3374 28.7499 98.4262 28.7279 97.8239 29.2488C97.412 28.524 96.532 28.1976 95.7706 28.3357C95.0092 28.4738 94.3351 28.9413 93.7017 29.4214C91.2084 28.32 88.2033 28.957 86.2592 30.9559C84.6084 31.2414 83.123 32.5217 82.4584 34.2005C81.7937 35.8793 81.7843 37.8122 82.1588 39.6071C82.4272 40.8874 82.914 42.1708 83.8189 43.0337C84.908 44.0692 86.4339 44.3422 87.8663 44.3203C91.2052 44.2669 94.2446 42.1331 97.0469 40.1688Z" fill="#405050"/>
<path d="M83.9782 38.1073C83.3697 43.9846 81.8531 54.3868 81.8531 54.3868C83.1762 56.7402 88.1659 56.4421 88.0505 55.6545C87.9849 55.2089 88.091 54.4339 88.35 53.7373C88.5497 53.1975 88.8431 52.7017 89.2175 52.4382C89.3736 52.3283 89.6513 52.2938 90.0102 52.2907C90.0695 52.2938 90.1007 52.2907 90.1007 52.2907C91.7514 52.3032 94.95 52.9371 96.3449 50.9288C98.0799 48.431 98.2702 41.4774 98.083 38.1261C97.9738 36.2088 96.3355 33.5196 93.0371 32.936C89.0053 32.2205 84.5898 32.1923 83.9782 38.1073Z" fill="#FDBCA0"/>
<path d="M84.5521 50.6526C84.5521 50.6526 85.8003 52.4632 88.3498 53.734C88.5495 53.1943 88.8428 52.6985 89.2173 52.4349C89.3733 52.3251 89.651 52.2906 90.0099 52.2874C89.5168 52.2749 87.0641 52.1243 84.5521 50.6526Z" fill="#F0A38B"/>
<path d="M94.0073 44.6844C94.232 44.6812 94.466 44.6875 94.6533 44.8287C94.7999 44.9386 94.8686 45.1205 94.8561 45.3025C94.8218 45.7168 94.4504 45.949 94.0822 46.0368C93.9636 46.0651 93.9074 45.8831 94.026 45.8548C94.3069 45.7889 94.6221 45.6352 94.6657 45.3151C94.6845 45.1864 94.6408 45.0547 94.5347 44.9762C94.388 44.8695 94.1914 44.8758 94.0167 44.8758C93.8918 44.8789 93.8856 44.6875 94.0073 44.6844Z" fill="#3F4553"/>
<path d="M91.6608 42.4C91.6484 42.7514 91.8699 43.0433 92.157 43.0527C92.4441 43.0621 92.6844 42.786 92.6969 42.4345C92.7094 42.0831 92.4878 41.7912 92.2007 41.7818C91.9136 41.7724 91.6733 42.0486 91.6608 42.4Z" fill="#3F4553"/>
<path d="M95.1183 42.7356C95.1058 43.0871 95.3274 43.3789 95.6144 43.3883C95.9015 43.3977 96.1418 43.1216 96.1543 42.7701C96.1668 42.4187 95.9452 42.1269 95.6581 42.1174C95.3742 42.108 95.1308 42.3842 95.1183 42.7356Z" fill="#3F4553"/>
<path d="M90.7774 39.4252C91.3952 39.0392 92.1785 38.9639 92.8525 39.262C92.9462 39.3028 93.0023 39.4095 92.9649 39.5099C92.9305 39.604 92.8151 39.6636 92.7183 39.6228C92.1785 39.3844 91.5232 39.4095 91.0177 39.7264C90.9303 39.7797 90.8211 39.786 90.7493 39.6982C90.69 39.6228 90.69 39.4816 90.7774 39.4252Z" fill="#3F4553"/>
<path d="M97.3589 40.0433C96.8658 39.5036 96.1325 39.2212 95.4054 39.3247C95.3024 39.3404 95.2244 39.4252 95.2338 39.5318C95.2431 39.6323 95.3367 39.7201 95.4397 39.7044C96.0233 39.6197 96.6474 39.8237 97.0499 40.263C97.1186 40.3383 97.2247 40.3728 97.3152 40.3069C97.3901 40.2567 97.4275 40.1218 97.3589 40.0433Z" fill="#3F4553"/>
<path d="M90.0381 43.787C90.0163 44.0569 90.4095 44.311 90.915 44.355C91.4236 44.3989 91.8543 44.2169 91.8761 43.947C91.8979 43.6772 91.5048 43.423 90.9992 43.3791C90.4906 43.3351 90.06 43.5171 90.0381 43.787Z" fill="#FBAD8B"/>
<path d="M95.6393 44.2857C95.6175 44.5556 96.0107 44.8098 96.5162 44.8537C97.0248 44.8976 97.4555 44.7156 97.4773 44.4458C97.4992 44.1759 97.106 43.9217 96.6005 43.8778C96.0918 43.8339 95.6612 44.0159 95.6393 44.2857Z" fill="#FBAD8B"/>
<path d="M94.959 47.9225C94.8997 48.2551 94.7156 48.5564 94.4629 48.7792C94.416 48.8231 94.3724 48.8576 94.3224 48.8921C94.001 49.1243 93.6016 49.2373 93.2053 49.2498C92.6249 49.2718 92.032 49.071 91.6138 48.6662C91.4515 48.5093 91.3174 48.3242 91.2237 48.1202C91.0677 47.797 91.0053 47.4299 91.0677 47.0784C91.102 46.8807 91.1988 46.6705 91.386 46.6203C91.5077 46.5889 91.6263 46.6297 91.7386 46.6956C91.7979 46.7301 91.8541 46.7709 91.9071 46.8086C92.3409 47.1318 92.809 47.4267 93.3332 47.5522C93.7014 47.6401 94.104 47.6338 94.4597 47.4989C94.5783 47.4518 94.7562 47.2949 94.8872 47.3765C94.8904 47.3797 94.8904 47.3797 94.8935 47.3797C95.0308 47.4863 94.9871 47.7813 94.959 47.9225Z" fill="#4E5567"/>
<path d="M94.8839 47.3827C94.8589 47.4737 94.8121 47.5647 94.7528 47.64C94.6218 47.8032 94.4252 47.9099 94.2255 47.9758C93.5514 48.1986 92.7869 48.0228 92.2034 47.6181C92.0161 47.4863 91.8382 47.3262 91.754 47.1097C91.7041 46.9811 91.6947 46.8336 91.7353 46.7018C91.7946 46.7363 91.8507 46.7771 91.9038 46.8147C92.3375 47.138 92.8056 47.4329 93.3299 47.5584C93.6981 47.6463 94.1006 47.64 94.4564 47.5051C94.575 47.458 94.7528 47.3011 94.8839 47.3827Z" fill="white"/>
<path d="M94.4631 48.7824C94.4163 48.8263 94.3726 48.8609 94.3227 48.8954C94.0013 49.1276 93.6019 49.2405 93.2056 49.2531C92.6251 49.2751 92.0322 49.0742 91.6141 48.6694C91.4518 48.5126 91.3176 48.3274 91.224 48.1235C91.6734 48.0764 92.1321 48.0701 92.5846 48.1046C93.1244 48.1454 93.6736 48.249 94.1355 48.5282C94.2478 48.6036 94.3602 48.6851 94.4631 48.7824Z" fill="#3F4553"/>
<path d="M94.828 36.8268C93.4113 37.1186 91.8479 36.4942 91.0178 35.3018C90.9148 35.6627 90.6153 35.9608 90.2533 36.0643C89.8944 36.1679 89.4825 36.0706 89.2048 35.8164C89.1486 36.9774 88.8459 38.1479 88.1813 39.0955C87.5166 40.0463 86.4618 40.7524 85.3104 40.8434C84.6675 40.8936 83.9841 40.7398 83.5036 40.3036C83.0573 39.8957 82.8358 39.2964 82.7016 38.7064C82.3802 37.285 82.4769 35.7537 83.0604 34.4169C83.6409 33.0801 84.7175 31.9505 86.0562 31.3857C87.3356 30.8428 88.771 30.8303 90.1597 30.8773C91.5889 30.9275 93.0306 31.0405 94.388 31.4955C95.4895 31.8626 96.5349 32.4714 97.3057 33.3531C97.4555 33.5257 97.7176 33.7673 97.7145 34.009C97.7114 34.2443 97.546 34.5518 97.443 34.7589C97.2027 35.2453 96.8595 35.6752 96.4475 36.0235C95.9857 36.422 95.424 36.7044 94.828 36.8268Z" fill="#405050"/>
<path d="M84.5772 40.9187C84.0935 40.3476 83.3914 39.9145 82.6238 39.9773C81.8655 40.0401 81.2694 40.5578 81.076 41.2952C80.948 41.791 80.9886 42.3151 81.0822 42.8203C81.179 43.3506 81.3287 43.8746 81.5815 44.3484C82.0589 45.2427 83.0544 46.0586 84.1247 45.704C85.5508 45.2302 85.6476 43.4635 85.2918 42.2303C85.1545 41.7722 84.9049 41.3078 84.5772 40.9187Z" fill="#FDBCA0"/>
<path d="M82.6924 41.2544C82.5613 41.1853 82.449 41.383 82.5769 41.452C83.4881 41.9259 83.9968 42.9457 83.8127 43.9655C83.7877 44.1099 84.0062 44.1695 84.0311 44.0251C84.234 42.9112 83.7003 41.7784 82.6924 41.2544Z" fill="#F0A38B"/>
<path d="M83.7346 42.4375C83.3476 42.2774 82.9201 42.2429 82.5145 42.3276C82.4552 42.3402 82.4208 42.4124 82.4364 42.4688C82.4552 42.5316 82.5144 42.5598 82.5769 42.5473C82.9451 42.472 83.3289 42.5128 83.6784 42.6571C83.7346 42.6791 83.8032 42.632 83.8188 42.5787C83.8313 42.5128 83.7908 42.4626 83.7346 42.4375Z" fill="#F0A38B"/>
<path d="M82.3367 51.4025L79.7966 52.4819L77.5342 58.9335L81.3911 56.8468L82.6986 58.1082L82.3367 51.4025Z" fill="#536969"/>
<path d="M72.4633 58.3952C72.4633 58.3952 62.4526 76.1151 64.6183 79.1495C66.7839 82.1838 86.1219 85.1397 86.1219 85.1397L86.9177 81.2048C86.9177 81.2048 72.8378 77.3389 72.5476 76.2312L72.9033 71.791C72.9002 71.791 74.061 59.9799 72.4633 58.3952Z" fill="#FDBCA0"/>
<path d="M72.5445 76.2297L72.9002 71.7896C72.9002 71.7896 74.061 59.9784 72.4633 58.3906C72.4633 58.3906 62.4526 76.1105 64.6183 79.1449C65.3173 80.1239 67.8137 81.0966 70.8687 81.9658L71.8142 81.6364L73.6741 76.964C73.0094 76.6659 72.5913 76.4117 72.5445 76.2297Z" fill="#405050"/>
<path d="M75.9364 77.4817C74.3855 78.8655 73.3557 80.8298 73.0936 82.8977C72.6848 82.904 72.3072 82.7345 71.9702 82.5023C71.5739 82.7722 71.0496 82.7126 70.5784 82.6404C70.3912 82.6122 70.1821 82.5714 70.0729 82.4176C70.0011 82.3172 69.9887 82.1885 69.9762 82.0662C69.9294 81.5829 69.8826 81.0903 69.998 80.6196C70.1103 80.1614 70.3694 79.7535 70.6252 79.355C71.0684 78.6678 71.5115 77.9775 71.9546 77.2903C72.1075 77.0549 72.2604 76.8133 72.482 76.6438C72.7035 76.4713 73.0031 76.3771 73.2652 76.4713C73.4275 76.5309 73.5585 76.6533 73.7114 76.7348C73.9673 76.8698 74.2669 76.8792 74.554 76.8698C74.8411 76.8604 75.1344 76.8321 75.4121 76.9074C75.6899 76.9827 75.8771 77.1961 75.9364 77.4817Z" fill="#536969"/>
<path d="M72.9345 61.3248C72.894 65.1624 72.7473 69.0001 72.4914 72.8315C72.4196 73.9204 72.3354 75.0092 72.2449 76.0981C72.2199 76.3899 72.6755 76.3805 72.7005 76.0887C73.0188 72.2635 73.2279 68.429 73.3308 64.5913C73.3589 63.4993 73.3776 62.4073 73.3901 61.3185C73.3932 61.0204 72.9376 61.0298 72.9345 61.3248Z" fill="#A1B8B8"/>
<path d="M86.1188 85.1353C86.1188 85.1353 93.8141 88.2858 94.1636 87.6425C94.5131 87.0024 90.8652 85.7849 90.8652 85.7849C90.8652 85.7849 95.9797 86.8267 96.1139 86.2995C96.2481 85.7755 91.327 84.4638 91.327 84.4638C91.327 84.4638 97.203 85.5433 97.2747 84.9282C97.3465 84.3132 92.0915 83.1584 92.0915 83.1584C92.0915 83.1584 97.0282 83.4408 97.0625 82.9921C97.1218 82.1857 86.9146 81.2004 86.9146 81.2004L86.1188 85.1353Z" fill="#FDBCA0"/>
<path d="M87.6477 81.2787C87.6477 81.2787 91.5733 79.8478 91.9697 80.1585C92.366 80.4692 90.2378 82.035 90.2378 82.035L87.6477 81.2787Z" fill="#FDBCA0"/>
<path d="M76.0675 77.0708H55.7466C55.5312 77.0708 55.4033 77.2466 55.4626 77.4631L58.9982 90.3819C59.0575 90.5984 59.279 90.7741 59.4943 90.7741H79.8153C80.0306 90.7741 80.1585 90.5984 80.0992 90.3819L76.5637 77.4631C76.5075 77.2466 76.2828 77.0708 76.0675 77.0708Z" fill="#E7DFC2"/>
<path d="M78.5731 90.6173L75.5711 79.6534C75.5212 79.4683 75.3308 79.3208 75.1498 79.3208H57.9058C57.7216 79.3208 57.6155 79.4683 57.6655 79.6534L60.6674 90.6173C60.6643 90.611 60.6862 90.6895 60.7111 90.771H78.6199L78.5731 90.6173Z" fill="#F7F4E3"/>
<path d="M57.2224 78.0405C57.2224 78.3072 57.0071 78.5206 56.7449 78.5206C56.4797 78.5206 56.2675 78.3041 56.2675 78.0405C56.2675 77.7769 56.4828 77.5604 56.7449 77.5604C57.0071 77.5604 57.2224 77.7769 57.2224 78.0405Z" fill="#405050"/>
<path d="M56.9668 78.0405C56.9668 78.1628 56.8669 78.2633 56.7452 78.2633C56.6235 78.2633 56.5236 78.1628 56.5236 78.0405C56.5236 77.9181 56.6235 77.8177 56.7452 77.8177C56.8669 77.8177 56.9668 77.9181 56.9668 78.0405Z" fill="#576E6E"/>
<path d="M74.7695 79.4714H57.5254C57.3413 79.4714 57.2352 79.6189 57.2851 79.804L60.2871 90.7679C60.284 90.7554 60.3807 91.1005 60.3807 91.1005H78.2864L78.1959 90.7679L75.1939 79.804C75.1408 79.6189 74.9536 79.4714 74.7695 79.4714Z" fill="#EBB254"/>
<path d="M78.1926 90.7679L76.261 83.7076H58.3522L60.2838 90.7679C60.2807 90.7554 60.3774 91.1005 60.3774 91.1005H78.2831L78.1926 90.7679Z" fill="#FEDEA6"/>
<path d="M74.8035 92.7982H56.9072L60.3866 91.1006H78.2829L74.8035 92.7982Z" fill="#EBB254"/>
<path d="M97.6242 58.5947L134.106 52.4977C134.702 52.3973 135.245 52.868 135.242 53.483L135.086 76.7601C135.083 77.2308 134.759 77.6324 134.306 77.7266L98.7163 85.1321C97.8426 85.3392 96.8035 84.7806 96.8035 83.4909V59.5737C96.8066 59.0905 97.153 58.6763 97.6242 58.5947Z" fill="#FEDEA6"/>
<path d="M99.2749 58.5287L134.106 52.7204C134.702 52.62 135.245 53.0875 135.242 53.6963L135.092 76.7976C135.089 77.2621 134.765 77.6606 134.312 77.7547L99.6307 84.9186C99.0253 85.0441 98.4574 84.5797 98.4574 83.9552V59.5014C98.4605 59.0151 98.8037 58.6071 99.2749 58.5287Z" fill="#FAC978"/>
<path d="M115.018 70.6411L112.999 82.151L123.971 79.8854L115.018 70.6411Z" fill="#EBB254"/>
<path d="M114.562 91.7059L109.747 90.0616C108.976 89.7981 109.023 88.6872 109.813 88.4895L117.976 86.4342C118.12 86.3997 118.266 86.4028 118.407 86.4436L123.147 87.8682C123.93 88.1036 123.921 89.2207 123.134 89.4435L115.046 91.7185C114.887 91.7624 114.718 91.7593 114.562 91.7059Z" fill="#EBB254"/>
<path d="M121.765 69.5428C121.671 69.1098 121.256 68.8305 120.822 68.909L115.686 69.8441C115.302 69.9131 115.021 70.2489 115.015 70.6411L114.8 91.7876L125.846 88.6779L121.765 69.5428ZM120.451 85.9856C118.903 86.1456 117.465 84.4605 117.237 82.22C117.009 79.9827 118.079 78.0372 119.627 77.8803C121.175 77.7203 122.613 79.4053 122.841 81.6458C123.069 83.8831 121.999 85.8255 120.451 85.9856Z" fill="#FEDEA6"/>
<path d="M118.875 31.5741C113.648 31.5741 109.395 27.2971 109.395 22.0411C109.395 16.7851 113.648 12.5081 118.875 12.5081C124.102 12.5081 128.355 16.7851 128.355 22.0411C128.355 27.2971 124.102 31.5741 118.875 31.5741ZM118.875 15.2099C115.128 15.2099 112.079 18.2756 112.079 22.0443C112.079 25.8129 115.128 28.8787 118.875 28.8787C122.623 28.8787 125.672 25.8129 125.672 22.0443C125.672 18.2756 122.623 15.2099 118.875 15.2099Z" fill="#F5E2D5"/>
<path d="M115.324 24.4478L114.903 23.6539L118.494 21.7366L120.011 16.0287L120.875 16.2609L119.259 22.3485L115.324 24.4478Z" fill="#F5E2D5"/>
</g>
<defs>
<clipPath id="clip0_1_2559">
<rect width="118" height="85" fill="white" transform="translate(29.5 9)"/>
</clipPath>
</defs>
</svg>
